<svg width="30" height="30" viewBox="0 0 30 30" fill="none" xmlns="http://www.w3.org/2000/svg">
<path d="M6 15.5C6 16.8807 4.88071 18 3.5 18C2.11929 18 1 16.8807 1 15.5C1 14.1193 2.11929 13 3.5 13C4.88071 13 6 14.1193 6 15.5Z" fill="#939CB0"/>
<path d="M17 15.5C17 16.8807 15.8807 18 14.5 18C13.1193 18 12 16.8807 12 15.5C12 14.1193 13.1193 13 14.5 13C15.8807 13 17 14.1193 17 15.5Z" fill="#939CB0"/>
<path d="M28 15.5C28 16.8807 26.8807 18 25.5 18C24.1193 18 23 16.8807 23 15.5C23 14.1193 24.1193 13 25.5 13C26.8807 13 28 14.1193 28 15.5Z" fill="#939CB0"/>
</svg>
