<svg width="104" height="43" viewBox="0 0 104 43" fill="none" xmlns="http://www.w3.org/2000/svg">
<g clip-path="url(#clip0)">
<path d="M55.6073 34.8767H53.6749L53.6652 13.6101H42.3582V15.6938C42.3582 22.1831 42.126 29.6946 39.9033 34.8767H38.405V42.7703H41.7874V37.9751H52.2249V42.7703H55.6073V34.8767ZM71.1045 33.4884C70.1383 34.1653 68.4477 35.1347 66.3205 35.1347C63.3251 35.1347 61.7784 32.2279 61.7784 26.7067H71.9256V24.6255C71.9256 16.3449 69.2688 13.2931 65.2092 13.2931C60.0394 13.2931 57.8651 19.0072 57.8651 26.8529C57.8651 34.3595 60.9573 38.3794 65.9831 38.3794C68.3993 38.3794 70.4285 37.6041 71.974 36.3928L71.1045 33.4872V33.4884ZM32.3669 13.6027V24.021H26.7618V13.6027H22.9924V38.012H26.7618V27.0016H32.3669V38.012H36.0868V13.604H32.3669V13.6027ZM86.0092 38.0059H90.116L83.206 25.0751L89.2465 13.5978H85.4287L79.5817 24.881V13.6003H75.8136V38.0083H79.5817V25.8528L86.0092 38.0083V38.0059ZM104.024 36.4763L103.153 33.6678C102.284 34.4418 100.884 35.1691 99.0467 35.1691C96.0029 35.1691 94.5529 31.6824 94.5529 25.5801C94.5529 19.4299 96.4854 16.3781 99.1918 16.3781C100.738 16.3781 102.187 17.2012 103.203 18.0735L103.735 14.4898C102.671 13.8116 101.414 13.2305 99.2402 13.2305C93.5383 13.2305 90.5912 18.1227 90.5912 25.7742C90.5912 34.1039 93.7318 38.3179 98.9499 38.3179C101.173 38.3179 102.719 37.5906 104.024 36.4763ZM49.949 35.0032H43.4744C45.5036 29.8211 45.7455 22.3158 45.7455 17.1816V16.7454H49.949V35.0032ZM65.2189 16.4555C67.3932 16.4555 68.0704 19.506 68.0704 23.6709H61.8364C62.0783 19.3131 62.9006 16.4555 65.2189 16.4555Z" fill="black"/>
<path d="M14.3811 25.0014V37.9321H18.1021V3.71889H12.5453C7.08413 3.71889 2.49362 7.2756 2.49362 14.5401C2.49362 19.7223 4.52283 22.5308 7.56785 24.08L1.09204 37.9321H5.39353L11.2889 25.0002H14.3811V25.0014ZM14.3883 21.9828H12.4075C9.17018 21.9828 6.51213 20.1916 6.51213 14.6225C6.51213 8.85923 9.41204 6.87386 12.4075 6.87386H14.3883V21.9828Z" fill="#FF0000"/>
</g>
<defs>
<clipPath id="clip0">
<rect width="104" height="43" fill="white"/>
</clipPath>
</defs>
</svg>
